<svg width="256" height="256" viewBox="0 0 256 256" fill="none" xmlns="http://www.w3.org/2000/svg">
  <rect width="256" height="256" rx="56" fill="#2C3538"/>
  <path d="M72 78L96 38L118 92" fill="#D67C37"/>
  <path d="M184 78L160 38L138 92" fill="#D67C37"/>
  <path d="M128 52C82.7127 52 46 88.7127 46 134C46 179.287 82.7127 216 128 216C167.224 216 200 188.467 207.475 151.5C196.357 167.101 177.998 177.25 157.25 177.25C123.689 177.25 96.5 150.061 96.5 116.5C96.5 89.7602 113.779 67.0566 137.781 58.9256C134.622 58.3146 131.36 58 128 58C127.999 58 127.999 58 128 58V52Z" fill="#F1E3CD"/>
  <circle cx="103" cy="116" r="10" fill="#2C3538"/>
  <circle cx="153" cy="116" r="10" fill="#2C3538"/>
  <path d="M112 145C121.5 152.333 134.5 152.333 144 145" stroke="#2C3538" stroke-width="10" stroke-linecap="round"/>
</svg>
